{"asset":{"version":"2.0","generator":"Blockbench 4.8.3 glTF exporter"},"scenes":[{"nodes":[10],"name":"blockbench_export"}],"scene":0,"nodes":[{"rotation":[0.7071067811865475,0,0,0.7071067811865476],"name":"v1_mdl"},{"rotation":[0.7071067811865475,0,0,0.7071067811865476],"name":"v1_mdl_0","mesh":0},{"rotation":[0.6532814776634361,0.270598047846595,0.27059805229960204,0.6532814872129403],"translation":[0.07392599920138893,1.293583981250002,0.10559151326041638],"name":"v1_mdl_1","mesh":1},{"rotation":[0.6532814776634361,-0.27059804784659475,-0.27059805229960165,0.6532814872129408],"translation":[-0.07392605878472236,1.293583981250002,0.10559151326041638],"name":"v1_mdl_2","mesh":2},{"rotation":[0.7010573772277489,-0.0922959549918964,-0.09229595629061814,0.7010573920722069],"translation":[-0.08583765552083333,1.2691090236111136,0.10300974974999977],"name":"v1_mdl_3","mesh":3},{"rotation":[0.6988771190081127,0.10756747649841386,0.10756747940548615,0.6988771336229522],"translation":[-0.07021265552083333,1.2507897211805519,0.10300975668402756],"name":"v1_mdl_4","mesh":4},{"rotation":[0.653281471761518,0.270598045094485,0.27059805505171125,0.6532814931148585],"translation":[-0.06545786476388848,1.2251193618055543,0.10247695044444416],"name":"v1_mdl_5","mesh":5},{"rotation":[0.7010573846499778,0.09229595564125725,0.09229595564125724,0.7010573846499779],"translation":[0.08583759595833335,1.2691090236111136,0.10300974974999977],"name":"v1_mdl_6","mesh":6},{"rotation":[0.6988771263155323,-0.1075674779519501,-0.10756747795195008,0.6988771263155324],"translation":[0.07021259595833335,1.2507897211805519,0.10300975668402756],"name":"v1_mdl_7","mesh":7},{"rotation":[0.6532814776634361,-0.270598047846595,-0.27059805229960204,0.6532814872129403],"translation":[0.0654578073055555,1.225119361805554,0.10247695044444405],"name":"v1_mdl_8","mesh":8},{"children":[0,1,2,3,4,5,6,7,8,9]}],"bufferViews":[{"buffer":0,"byteOffset":0,"byteLength":56016,"target":34962,"byteStride":12},{"buffer":0,"byteOffset":56016,"byteLength":56016,"target":34962,"byteStride":12},{"buffer":0,"byteOffset":112032,"byteLength":37344,"target":34962,"byteStride":8},{"buffer":0,"byteOffset":149376,"byteLength":9336,"target":34963},{"buffer":0,"byteOffset":158712,"byteLength":5184,"target":34962,"byteStride":12},{"buffer":0,"byteOffset":163896,"byteLength":5184,"target":34962,"byteStride":12},{"buffer":0,"byteOffset":169080,"byteLength":3456,"target":34962,"byteStride":8},{"buffer":0,"byteOffset":172536,"byteLength":864,"target":34963},{"buffer":0,"byteOffset":173400,"byteLength":5184,"target":34962,"byteStride":12},{"buffer":0,"byteOffset":178584,"byteLength":5184,"target":34962,"byteStride":12},{"buffer":0,"byteOffset":183768,"byteLength":3456,"target":34962,"byteStride":8},{"buffer":0,"byteOffset":187224,"byteLength":864,"target":34963},{"buffer":0,"byteOffset":188088,"byteLength":5184,"target":34962,"byteStride":12},{"buffer":0,"byteOffset":193272,"byteLength":5184,"target":34962,"byteStride":12},{"buffer":0,"byteOffset":198456,"byteLength":3456,"target":34962,"byteStride":8},{"buffer":0,"byteOffset":201912,"byteLength":864,"target":34963},{"buffer":0,"byteOffset":202776,"byteLength":5184,"target":34962,"byteStride":12},{"buffer":0,"byteOffset":207960,"byteLength":5184,"target":34962,"byteStride":12},{"buffer":0,"byteOffset":213144,"byteLength":3456,"target":34962,"byteStride":8},{"buffer":0,"byteOffset":216600,"byteLength":864,"target":34963},{"buffer":0,"byteOffset":217464,"byteLength":5184,"target":34962,"byteStride":12},{"buffer":0,"byteOffset":222648,"byteLength":5184,"target":34962,"byteStride":12},{"buffer":0,"byteOffset":227832,"byteLength":3456,"target":34962,"byteStride":8},{"buffer":0,"byteOffset":231288,"byteLength":864,"target":34963},{"buffer":0,"byteOffset":232152,"byteLength":5184,"target":34962,"byteStride":12},{"buffer":0,"byteOffset":237336,"byteLength":5184,"target":34962,"byteStride":12},{"buffer":0,"byteOffset":242520,"byteLength":3456,"target":34962,"byteStride":8},{"buffer":0,"byteOffset":245976,"byteLength":864,"target":34963},{"buffer":0,"byteOffset":246840,"byteLength":5184,"target":34962,"byteStride":12},{"buffer":0,"byteOffset":252024,"byteLength":5184,"target":34962,"byteStride":12},{"buffer":0,"byteOffset":257208,"byteLength":3456,"target":34962,"byteStride":8},{"buffer":0,"byteOffset":260664,"byteLength":864,"target":34963},{"buffer":0,"byteOffset":261528,"byteLength":5184,"target":34962,"byteStride":12},{"buffer":0,"byteOffset":266712,"byteLength":5184,"target":34962,"byteStride":12},{"buffer":0,"byteOffset":271896,"byteLength":3456,"target":34962,"byteStride":8},{"buffer":0,"byteOffset":275352,"byteLength":864,"target":34963}],"buffers":[{"byteLength":276216,"uri":"data:application/octet-stream;base64,"}],"accessors":[{"bufferView":0,"componentType":5126,"count":4668,"max":[0.24494044482707977,0.17486825585365295,0.00036785175325348973],"min":[-0.24494044482707977,-0.1738271713256836,-1.5984588861465454],"type":"VEC3"},{"bufferView":1,"componentType":5126,"count":4668,"max":[1,0.9969332218170166,1],"min":[-1,-1,-0.999992847442627],"type":"VEC3"},{"bufferView":2,"componentType":5126,"count":4668,"max":[0.99609375,0.9960098266601562],"min":[0.00399017333984375,0.00146484375],"type":"VEC2"},{"bufferView":3,"componentType":5123,"count":4668,"max":[4667],"min":[0],"type":"SCALAR"},{"bufferView":4,"componentType":5126,"count":432,"max":[0.7393714785575867,0.02601732686161995,0.03884158283472061],"min":[0.005223110783845186,-0.044256240129470825,-0.12390492111444473],"type":"VEC3"},{"bufferView":5,"componentType":5126,"count":432,"max":[1,0.9956839680671692,0.999375581741333],"min":[-0.9972997903823853,-0.995684027671814,-1],"type":"VEC3"},{"bufferView":6,"componentType":5126,"count":432,"max":[0.93701171875,0.9939804077148438],"min":[0.054656982421875,0.009765625],"type":"VEC2"},{"bufferView":7,"componentType":5123,"count":432,"max":[431],"min":[0],"type":"SCALAR"},{"bufferView":8,"componentType":5126,"count":432,"max":[-0.0052231112495064735,0.02601732686161995,0.03884158283472061],"min":[-0.7393714189529419,-0.044256240129470825,-0.12390492111444473],"type":"VEC3"},{"bufferView":9,"componentType":5126,"count":432,"max":[0.9972997903823853,0.9956839680671692,0.999375581741333],"min":[-1,-0.995684027671814,-1],"type":"VEC3"},{"bufferView":10,"componentType":5126,"count":432,"max":[0.93701171875,0.9939804077148438],"min":[0.054656982421875,0.009765625],"type":"VEC2"},{"bufferView":11,"componentType":5123,"count":432,"max":[431],"min":[0],"type":"SCALAR"},{"bufferView":12,"componentType":5126,"count":432,"max":[0.010401895269751549,0.026017330586910248,0.038841623812913895],"min":[-0.7237464785575867,-0.044256240129470825,-0.12390497326850891],"type":"VEC3"},{"bufferView":13,"componentType":5126,"count":432,"max":[0.9972996711730957,0.995684027671814,0.999375581741333],"min":[-1,-0.995684027671814,-1],"type":"VEC3"},{"bufferView":14,"componentType":5126,"count":432,"max":[0.93701171875,0.9939804077148438],"min":[0.054656982421875,0.009765625],"type":"VEC2"},{"bufferView":15,"componentType":5123,"count":432,"max":[431],"min":[0],"type":"SCALAR"},{"bufferView":16,"componentType":5126,"count":432,"max":[-0.005223104264587164,0.02601732313632965,0.03884151950478554],"min":[-0.7393714785575867,-0.044256240129470825,-0.12390498071908951],"type":"VEC3"},{"bufferView":17,"componentType":5126,"count":432,"max":[0.9972996711730957,0.9956839680671692,0.9993754625320435],"min":[-1,-0.995684027671814,-1],"type":"VEC3"},{"bufferView":18,"componentType":5126,"count":432,"max":[0.93701171875,0.9939804077148438],"min":[0.054656982421875,0.009765625],"type":"VEC2"},{"bufferView":19,"componentType":5123,"count":432,"max":[431],"min":[0],"type":"SCALAR"},{"bufferView":20,"componentType":5126,"count":432,"max":[-0.0052231112495064735,0.0260173287242651,0.03884166106581688],"min":[-0.7393714785575867,-0.044256243854761124,-0.12390493601560593],"type":"VEC3"},{"bufferView":21,"componentType":5126,"count":432,"max":[0.9972997307777405,0.995684027671814,0.9993754625320435],"min":[-1,-0.995684027671814,-1],"type":"VEC3"},{"bufferView":22,"componentType":5126,"count":432,"max":[0.93701171875,0.9939804077148438],"min":[0.054656982421875,0.009765625],"type":"VEC2"},{"bufferView":23,"componentType":5123,"count":432,"max":[431],"min":[0],"type":"SCALAR"},{"bufferView":24,"componentType":5126,"count":432,"max":[0.7237464189529419,0.026017330586910248,0.038841623812913895],"min":[-0.010401896201074123,-0.044256240129470825,-0.12390497326850891],"type":"VEC3"},{"bufferView":25,"componentType":5126,"count":432,"max":[1,0.995684027671814,0.999375581741333],"min":[-0.9972996711730957,-0.995684027671814,-1],"type":"VEC3"},{"bufferView":26,"componentType":5126,"count":432,"max":[0.93701171875,0.9939804077148438],"min":[0.054656982421875,0.009765625],"type":"VEC2"},{"bufferView":27,"componentType":5123,"count":432,"max":[431],"min":[0],"type":"SCALAR"},{"bufferView":28,"componentType":5126,"count":432,"max":[0.7393714189529419,0.02601732313632965,0.03884151950478554],"min":[0.005223104264587164,-0.044256240129470825,-0.12390498071908951],"type":"VEC3"},{"bufferView":29,"componentType":5126,"count":432,"max":[1,0.9956839680671692,0.9993754625320435],"min":[-0.9972996115684509,-0.995684027671814,-1],"type":"VEC3"},{"bufferView":30,"componentType":5126,"count":432,"max":[0.93701171875,0.9939804077148438],"min":[0.054656982421875,0.009765625],"type":"VEC2"},{"bufferView":31,"componentType":5123,"count":432,"max":[431],"min":[0],"type":"SCALAR"},{"bufferView":32,"componentType":5126,"count":432,"max":[0.7393715381622314,0.0260173287242651,0.03884166106581688],"min":[0.0052231126464903355,-0.044256243854761124,-0.12390493601560593],"type":"VEC3"},{"bufferView":33,"componentType":5126,"count":432,"max":[1,0.995684027671814,0.9993754625320435],"min":[-0.9972997903823853,-0.995684027671814,-1],"type":"VEC3"},{"bufferView":34,"componentType":5126,"count":432,"max":[0.93701171875,0.9939804077148438],"min":[0.054656982421875,0.009765625],"type":"VEC2"},{"bufferView":35,"componentType":5123,"count":432,"max":[431],"min":[0],"type":"SCALAR"}],"materials":[{"pbrMetallicRoughness":{"metallicFactor":0,"roughnessFactor":1,"baseColorTexture":{"index":0}},"alphaMode":"MASK","alphaCutoff":0.05,"doubleSided":true},{"pbrMetallicRoughness":{"metallicFactor":0,"roughnessFactor":1,"baseColorTexture":{"index":1}},"alphaMode":"MASK","alphaCutoff":0.05,"doubleSided":true}],"textures":[{"sampler":0,"source":0,"name":"v1colour_tex.png"},{"sampler":1,"source":1,"name":"v1_wingcolour_tex.png"}],"samplers":[{"magFilter":9728,"minFilter":9728,"wrapS":33071,"wrapT":33071},{"magFilter":9728,"minFilter":9728,"wrapS":33071,"wrapT":33071}],"images":[{"mimeType":"image/png","uri":"data:image/png;base64,"},{"mimeType":"image/png","uri":"data:image/png;base64,"}],"meshes":[{"primitives":[{"mode":4,"attributes":{"POSITION":0,"NORMAL":1,"TEXCOORD_0":2},"indices":3,"material":0}]},{"primitives":[{"mode":4,"attributes":{"POSITION":4,"NORMAL":5,"TEXCOORD_0":6},"indices":7,"material":1}]},{"primitives":[{"mode":4,"attributes":{"POSITION":8,"NORMAL":9,"TEXCOORD_0":10},"indices":11,"material":1}]},{"primitives":[{"mode":4,"attributes":{"POSITION":12,"NORMAL":13,"TEXCOORD_0":14},"indices":15,"material":1}]},{"primitives":[{"mode":4,"attributes":{"POSITION":16,"NORMAL":17,"TEXCOORD_0":18},"indices":19,"material":1}]},{"primitives":[{"mode":4,"attributes":{"POSITION":20,"NORMAL":21,"TEXCOORD_0":22},"indices":23,"material":1}]},{"primitives":[{"mode":4,"attributes":{"POSITION":24,"NORMAL":25,"TEXCOORD_0":26},"indices":27,"material":1}]},{"primitives":[{"mode":4,"attributes":{"POSITION":28,"NORMAL":29,"TEXCOORD_0":30},"indices":31,"material":1}]},{"primitives":[{"mode":4,"attributes":{"POSITION":32,"NORMAL":33,"TEXCOORD_0":34},"indices":35,"material":1}]}]}